The Future 2011 LIMITED DVDRip XviD AMIABLE


Information:


Title: The Future
Year: 2011
Runtime: 91 mins
Votes: 930
Top 250: 0
Rating: 6.5
Language: English
All Genres: Drama 
http://www.imdb.com/title/tt1235170/


Plot Outline:


When a couple decides to adopt a stray cat their perspective on life changes radically, literally altering the course of time and space and testing their faith in each other and themselves.


Director: Miranda July
Writing By: Miranda July
Produced By: Aaron Beckum Gina Kwon Verona Meier Gerhard Meixner Lissi Muschol Roman Paul Mary Prendergast Rod Smith Sue Bruce Smith Chris Stinson
Music: Jon Brion


Cast:


Miranda July as Sophie / Voice of Paw-Paw
Hamish Linklater as Jason
David Warshofsky as Marshall
Isabella Acres as Gabriella
Joe Putterlik as Joe
Angela Trimbur as Dance Studio Receptionist
Mary Passeri as Animal Shelter Receptionist
Kathleen Gati as Dr. Straus
Clement von Franckenstein as Alain First Solicitation
Tonita Castro as Second Solicitation


Format : AVI
Format/Info : Audio Video Interleave
File size : 700 MiB
Duration : 1h 30mn
Overall bit rate : 1 078 Kbps
Writing application : Nandub v1.0rc2
Writing library : Nandub build 1853/release

Video
ID : 0
Format : MPEG-4 Visual
Format profile : Advanced Simple@L5
Format settings, BVOP : 1
Format settings, QPel : No
Format settings, GMC : No warppoints
Format settings, Matrix : Default (H.263)
Muxing mode : Packed bitstream
Codec ID : XVID
Codec ID/Hint : XviD
Duration : 1h 30mn
Bit rate : 933 Kbps
Width : 624 pixels
Height : 352 pixels
Display aspect ratio : 16:9
Frame rate : 23.976 fps
Color space : YUV
Chroma subsampling : 4:2:0
Bit depth : 8 bits
Scan type : Progressive
Compression mode : Lossy
Bits/(Pixel*Frame) : 0.177
Stream size : 605 MiB (86%)
Writing library : XviD 64

Audio
ID : 1
Format : MPEG Audio
Format version : Version 1
Format profile : Layer 3
Mode : Joint stereo
Mode extension : MS Stereo
Codec ID : 55
Codec ID/Hint : MP3
Duration : 1h 30mn
Bit rate mode : Constant
Bit rate : 32.0 Kbps
Channel(s) : 2 channels
Sampling rate : 48.0 KHz
Compression mode : Lossy
Delay relative to video : 8ms
Stream size : 86.2 MiB (12%)
Alignment : Aligned on interleaves
Interleave, duration : 24 ms (0.58 video frame)
Interleave, preload duration : 138 ms
Writing library : LAME3.96.


Poster:

 
http://i.imgur.com/XN8n8.jpg


Screenshots:

 
http://i.imgur.com/5XLeP.jpg


ENJOY!